<mxfile host="65bd71144e">
    <diagram id="LR38xS7ov-pGjZUFqFhn" name="Page-1">
        <mxGraphModel dx="360" dy="405" grid="1" gridSize="10" guides="1" tooltips="1" connect="1" arrows="1" fold="1" page="1" pageScale="1" pageWidth="3300" pageHeight="4681" math="0" shadow="0">
            <root>
                <mxCell id="0"/>
                <mxCell id="1" parent="0"/>
                <mxCell id="3" value="" style="rounded=0;whiteSpace=wrap;html=1;fontFamily=Lucida Console;fontColor=#179EBD;strokeColor=none;fillColor=#1A1A1A;" parent="1" vertex="1">
                    <mxGeometry x="40" y="80" width="200" height="200" as="geometry"/>
                </mxCell>
                <mxCell id="2" value="arteklabs" style="text;html=1;strokeColor=none;fillColor=none;align=center;verticalAlign=middle;whiteSpace=wrap;rounded=0;fontFamily=Lucida Console;fontStyle=0;fontColor=#D4D4D4;fontSize=20;" parent="1" vertex="1">
                    <mxGeometry x="60" y="240" width="120" height="20" as="geometry"/>
                </mxCell>
            </root>
        </mxGraphModel>
    </diagram>
</mxfile>